<svg width="334" height="334" viewBox="0 0 334 334" fill="none" xmlns="http://www.w3.org/2000/svg">
<rect width="334" height="334" rx="50" fill="white"/>
<path d="M279.7 167.5C295.33 167.5 308.285 180.294 305.179 195.612C301.54 213.566 294.43 230.733 284.153 246.113C268.605 269.383 246.505 287.519 220.65 298.229C194.794 308.939 166.343 311.741 138.895 306.281C111.446 300.821 86.2335 287.345 66.4444 267.556C46.6553 247.766 33.1787 222.554 27.7189 195.105C22.2591 167.657 25.0612 139.206 35.771 113.35C46.4808 87.4945 64.6173 65.3953 87.8868 49.847C103.267 39.57 120.434 32.4602 138.388 28.8206C153.706 25.7153 166.5 38.6703 166.5 54.3C166.5 69.9297 153.49 82.1593 138.721 87.2733C131.909 89.6318 125.39 92.8606 119.332 96.9082C105.37 106.237 94.4885 119.497 88.0626 135.01C81.6367 150.524 79.9554 167.594 83.2313 184.063C86.5072 200.532 94.5932 215.66 106.467 227.533C118.34 239.407 133.468 247.493 149.937 250.769C166.406 254.045 183.476 252.363 198.99 245.937C214.503 239.511 227.763 228.63 237.092 214.668C241.139 208.61 244.368 202.091 246.727 195.279C251.841 180.51 264.07 167.5 279.7 167.5Z" fill="#578FCA"/>
<path d="M198 168C215.673 168 230.638 183.174 222.165 198.684C221.257 200.346 220.273 201.972 219.214 203.556C212.182 214.081 202.186 222.284 190.492 227.128C178.797 231.972 165.929 233.24 153.514 230.77C141.099 228.301 129.696 222.205 120.745 213.255C111.795 204.304 105.699 192.901 103.23 180.486C100.76 168.071 102.028 155.203 106.872 143.508C111.716 131.814 119.919 121.818 130.444 114.786C132.028 113.727 133.654 112.743 135.316 111.835C150.826 103.362 166 118.327 166 136C166 153.673 180.327 168 198 168Z" fill="#27548A"/>
<path d="M288.431 146C298.051 144.304 304.582 135.08 301.699 125.746C294.685 103.034 282.029 82.3576 264.794 65.7134C247.558 49.0693 226.453 37.1428 203.509 30.9256C194.081 28.3706 185.091 35.219 183.731 44.8924C182.372 54.5659 189.336 66.491 189.152 76.2578C188.776 96.202 174.532 131.668 186.193 142.929C198.029 154.359 236.106 140.42 257.054 140.936C266.819 141.176 278.811 147.696 288.431 146Z" fill="#3674B5"/>
</svg>
