<svg width="439" height="230" viewBox="0 0 439 230" fill="none" xmlns="http://www.w3.org/2000/svg">
<path d="M0 100C0 44.7715 44.7715 0 100 0H414C427.807 0 439 11.1929 439 25V205C439 218.807 427.807 230 414 230H100C44.7715 230 0 185.228 0 130V100Z" fill="white"/>
<path d="M123 187C109.4 187 97.0667 183.867 86 177.6C75.0667 171.2 66.4667 162.533 60.2 151.6C54.0667 140.533 51 128.333 51 115C51 102.2 53.7333 90.6667 59.2 80.4C64.6667 70 72.4 61.8667 82.4 56C92.5333 50 104.067 47 117 47C128.733 47 138.733 48.5333 147 51.6C155.267 54.6667 161.4 58.5333 165.4 63.2C167.667 66.1333 169.067 69.8667 169.6 74.4C170.267 78.9333 170.6 84.4667 170.6 91H164.6C162.067 78.8667 157.4 70 150.6 64.4C143.933 58.8 134.733 56 123 56C108.067 56 97 61.6 89.8 72.8C82.6 84 79 98.0667 79 115C79 137.8 82.9333 154.2 90.8 164.2C98.8 174.067 109.533 179 123 179C133.4 179 142.4 177.267 150 173.8V138.2C150 131.133 152.667 125.333 158 120.8C163.333 116.133 173.6 113.8 188.8 113.8V118.8C180.267 118.8 176 125.133 176 137.8V173.6C168.4 178.267 160.267 181.667 151.6 183.8C142.933 185.933 133.4 187 123 187ZM219.675 78.2C214.875 78.2 211.142 76.7333 208.475 73.8C205.942 70.8667 204.675 67.2667 204.675 63C204.675 59.5333 205.675 56.8 207.675 54.8C209.808 52.8 212.475 51.8 215.675 51.8C220.475 51.8 224.142 53.2667 226.675 56.2C229.342 59.1333 230.675 62.7333 230.675 67C230.675 70.4667 229.608 73.2 227.475 75.2C225.475 77.2 222.875 78.2 219.675 78.2ZM206.675 115C206.675 108.2 205.742 103.2 203.875 100C202.008 96.6667 198.275 95 192.675 95H190.675V89H214.675C219.475 89 223.142 89.8 225.675 91.4C228.208 93 230.008 95.6667 231.075 99.4C232.142 103 232.675 108.2 232.675 115V183H206.675V115ZM283.995 185C273.195 185 264.795 182.6 258.795 177.8C252.929 172.867 249.995 166.267 249.995 158C249.995 151.333 251.529 145.8 254.595 141.4C257.795 137 263.329 133.667 271.195 131.4C279.062 129.133 289.995 128 303.995 128H306.995C306.995 116.4 305.395 108.2 302.195 103.4C298.995 98.4667 294.262 96 287.995 96C282.795 96 278.529 97.2667 275.195 99.8C271.862 102.333 269.462 107.067 267.995 114H256.995C256.995 109.467 257.262 105.6 257.795 102.4C258.462 99.2 259.862 96.4 261.995 94C266.129 89.3333 276.129 87 291.995 87C305.329 87 315.462 90.5333 322.395 97.6C329.462 104.533 332.995 115 332.995 129V183H315.995L308.995 174H307.995C306.795 175.867 304.929 177.733 302.395 179.6C297.862 183.2 291.729 185 283.995 185ZM289.995 175C292.795 175 295.195 174.467 297.195 173.4C299.195 172.2 301.129 170.6 302.995 168.6C304.729 166.733 306.062 164.533 306.995 162V137H303.995C294.529 137 287.662 138.733 283.395 142.2C279.129 145.533 276.995 150.8 276.995 158C276.995 163.467 278.129 167.667 280.395 170.6C282.662 173.533 285.862 175 289.995 175Z" fill="#070D59"/>
<path d="M356.214 77C356.214 70.2 355.281 65.2 353.414 62C351.547 58.6667 347.814 57 342.214 57H340.214V51H364.214C369.014 51 372.681 51.8 375.214 53.4C377.747 55 379.547 57.6667 380.614 61.4C381.681 65 382.214 70.2 382.214 77V183H356.214V77Z" fill="#0066FF"/>
</svg>
