<svg width="630" height="620" viewBox="0 0 630 620" fill="none" xmlns="http://www.w3.org/2000/svg">
<path d="M72.1172 587.6C68.3839 587.6 64.3839 587.2 60.1172 586.4C56.1172 585.867 52.2505 584.8 48.5172 583.2C45.0505 581.6 42.1172 579.6 39.7172 577.2C37.5839 575.067 36.5172 572.4 36.5172 569.2C36.5172 565.733 37.0505 557.333 38.1172 544C39.4505 530.667 41.0505 510.8 42.9172 484.4L40.1172 484C39.5839 484 39.0505 483.867 38.5172 483.6C38.2505 483.067 38.1172 482.133 38.1172 480.8C38.1172 476.533 38.6505 473.067 39.7172 470.4C41.0505 467.467 42.2505 466 43.3172 466C43.8505 458.8 44.3839 450.133 44.9172 440C45.7172 429.6 46.3839 418.533 46.9172 406.8C47.7172 394.8 48.3839 382.8 48.9172 370.8C49.7172 358.533 50.2505 346.933 50.5172 336C51.0505 324.8 51.4505 314.933 51.7172 306.4C52.2505 297.6 52.5172 290.8 52.5172 286C52.5172 284.133 52.9172 282.8 53.7172 282C54.5172 280.933 56.2505 280.4 58.9172 280.4C64.2505 280.4 69.7172 281.067 75.3172 282.4C80.9172 283.733 85.5839 285.867 89.3172 288.8C93.0505 291.467 94.9172 294.933 94.9172 299.2C94.9172 301.6 94.7839 306.133 94.5172 312.8C94.2505 319.2 93.7172 326.8 92.9172 335.6C92.3839 344.133 91.7172 353.067 90.9172 362.4C90.1172 371.733 89.3172 380.667 88.5172 389.2C87.9839 397.467 87.4505 404.4 86.9172 410C90.6505 400.4 95.9839 389.867 102.917 378.4C109.851 366.933 117.451 355.467 125.717 344C133.984 332.267 142.384 321.733 150.917 312.4C159.451 302.8 167.451 295.067 174.917 289.2C182.384 283.333 188.517 280.4 193.317 280.4C194.917 280.4 197.184 280.933 200.117 282C203.051 283.067 206.251 284.533 209.717 286.4C213.184 288.267 216.117 290.4 218.517 292.8C221.184 294.933 222.917 297.2 223.717 299.6C224.784 301.733 225.451 306.667 225.717 314.4C226.251 321.867 226.517 333.333 226.517 348.8C226.517 357.067 226.251 366.133 225.717 376C225.451 385.867 224.784 395.733 223.717 405.6C222.651 415.2 220.917 424.133 218.517 432.4C216.384 440.667 213.451 447.333 209.717 452.4C200.117 466.267 189.184 476.933 176.917 484.4C164.917 491.6 151.317 495.2 136.117 495.2C131.584 495.2 124.251 494.533 114.117 493.2C104.251 492.133 93.8505 490.933 82.9172 489.6C81.8505 507.2 81.0505 521.6 80.5172 532.8C79.9839 544.267 79.5839 553.733 79.3172 561.2C79.0505 568.667 78.9172 575.733 78.9172 582.4C78.9172 584.267 78.5172 585.6 77.7172 586.4C76.9172 587.2 75.0505 587.6 72.1172 587.6ZM141.317 474.8C154.917 474.8 165.317 464.933 172.517 445.2C179.984 425.2 183.717 397.067 183.717 360.8C183.717 344 183.317 332.667 182.517 326.8C181.984 320.933 179.984 318 176.517 318C174.917 318 171.717 320.4 166.917 325.2C162.117 329.733 156.517 336 150.117 344C143.717 352 137.051 361.067 130.117 371.2C123.451 381.333 116.917 392.133 110.517 403.6C104.384 414.8 98.9172 426 94.1172 437.2C89.5839 448.133 86.5172 458.4 84.9172 468C97.7172 470.667 108.651 472.533 117.717 473.6C127.051 474.4 134.917 474.8 141.317 474.8ZM128.398 495.2C125.198 495.2 124.798 494.133 127.198 492C129.598 490.133 133.598 487.6 139.198 484.4C144.798 481.2 150.932 477.867 157.598 474.4C164.265 470.667 170.265 467.467 175.598 464.8C193.465 458.933 208.932 451.333 221.998 442C235.065 432.4 246.132 422 255.198 410.8C264.532 399.6 272.398 388.267 278.798 376.8C285.465 365.333 291.332 354.8 296.398 345.2C298.265 342 299.732 340.8 300.798 341.6C301.865 342.133 302.665 343.867 303.198 346.8C303.732 349.733 303.865 353.2 303.598 357.2C303.332 361.2 302.532 364.933 301.198 368.4C296.398 380.133 290.532 391.333 283.598 402C276.665 412.667 268.932 422.667 260.398 432C252.132 441.067 243.198 449.333 233.598 456.8C223.998 464 214.265 470.4 204.398 476C194.265 481.333 184.265 485.467 174.398 488.4C168.265 490.267 161.465 491.867 153.998 493.2C146.265 494.533 137.732 495.2 128.398 495.2ZM371.17 587.6C359.437 587.6 347.837 586.267 336.37 583.6C325.17 580.933 314.904 577.6 305.57 573.6C296.237 569.6 288.37 566.133 281.97 563.2C279.57 562.133 277.837 560 276.77 556.8C275.97 553.867 275.57 551.2 275.57 548.8C275.57 545.333 275.97 542.667 276.77 540.8C277.837 538.933 278.904 538 279.97 538C281.304 538 284.37 539.067 289.17 541.2C294.237 543.6 300.904 546.267 309.17 549.2C317.437 552.133 326.637 554.667 336.77 556.8C347.17 559.2 357.97 560.4 369.17 560.4C376.904 560.4 383.57 559.333 389.17 557.2C394.77 555.067 399.304 550.8 402.77 544.4C406.237 538.267 408.77 529.067 410.37 516.8C411.97 504.8 412.904 488.667 413.17 468.4C413.17 459.067 413.17 448.133 413.17 435.6C413.17 422.8 413.304 409.867 413.57 396.8C414.104 383.733 414.637 372.267 415.17 362.4C410.904 372 405.17 382.8 397.97 394.8C390.77 406.533 382.637 418.4 373.57 430.4C364.77 442.133 355.837 452.933 346.77 462.8C337.704 472.4 329.304 480.267 321.57 486.4C314.104 492.267 307.97 495.2 303.17 495.2C301.837 495.2 299.704 494.667 296.77 493.6C293.837 492.533 290.637 491.067 287.17 489.2C283.97 487.067 281.037 484.933 278.37 482.8C275.704 480.4 274.104 478.133 273.57 476C272.504 472.533 271.97 466.8 271.97 458.8C271.97 453.733 272.104 446.8 272.37 438C272.637 428.933 273.037 418.933 273.57 408C274.37 397.067 275.57 386.267 277.17 375.6C278.77 364.667 280.904 354.667 283.57 345.6C286.237 336.267 289.57 328.8 293.57 323.2C303.437 309.867 314.37 299.467 326.37 292C338.637 284.267 352.504 280.4 367.97 280.4C373.304 280.4 380.77 280.8 390.37 281.6C399.97 282.4 411.037 283.6 423.57 285.2C436.104 286.8 449.037 288.933 462.37 291.6C462.904 291.6 463.304 291.867 463.57 292.4C464.104 292.667 464.37 293.467 464.37 294.8C464.37 299.067 463.704 302.533 462.37 305.2C461.304 307.867 460.237 309.2 459.17 309.2C457.837 315.867 456.77 324.133 455.97 334C455.437 343.6 454.904 355.6 454.37 370C454.104 384.4 453.837 401.6 453.57 421.6C453.57 441.6 453.57 465.467 453.57 493.2C453.57 510 451.037 524.4 445.97 536.4C440.904 548.4 434.37 558.267 426.37 566C418.104 573.467 409.037 578.933 399.17 582.4C389.304 585.867 379.97 587.6 371.17 587.6ZM320.77 457.6C322.637 457.6 325.97 455.333 330.77 450.8C335.837 446 341.704 439.6 348.37 431.6C355.037 423.6 361.97 414.533 369.17 404.4C376.637 394 383.704 383.2 390.37 372C397.037 360.8 402.904 349.733 407.97 338.8C413.037 327.6 416.504 317.2 418.37 307.6C405.837 304.933 394.904 303.2 385.57 302.4C376.504 301.333 368.77 300.8 362.37 300.8C347.704 300.8 336.104 312.8 327.57 336.8C319.304 360.533 315.17 394.133 315.17 437.6C315.17 446.667 315.57 452.267 316.37 454.4C317.17 456.533 318.637 457.6 320.77 457.6ZM437.23 478.8C434.83 479.067 433.23 478.533 432.43 477.2C431.63 475.6 431.63 473.6 432.43 471.2C432.963 468.8 434.03 466.4 435.63 464C436.963 461.333 438.563 459.067 440.43 457.2C442.296 455.067 444.03 453.733 445.63 453.2C452.83 449.467 459.896 444.267 466.83 437.6C473.496 430.667 478.963 424.667 483.23 419.6C488.03 413.467 493.096 406 498.43 397.2C504.03 388.133 509.363 378.933 514.43 369.6C519.763 360.267 524.163 351.333 527.63 342.8C531.363 334 533.896 327.067 535.23 322C536.296 317.733 537.363 315.2 538.43 314.4C539.763 313.6 540.83 313.867 541.63 315.2C542.43 316.533 542.83 318.533 542.83 321.2C542.83 323.6 542.563 327.067 542.03 331.6C541.763 336.133 540.696 340.667 538.83 345.2C537.763 349.2 535.896 354.533 533.23 361.2C530.563 367.6 527.363 374.533 523.63 382C520.163 389.2 516.563 396.267 512.83 403.2C509.096 410.133 505.63 416 502.43 420.8C496.296 430.933 490.03 439.733 483.63 447.2C477.496 454.4 470.83 460.533 463.63 465.6C456.163 470.667 447.363 475.067 437.23 478.8ZM555.748 495.2C554.415 495.2 552.282 494.667 549.348 493.6C546.415 492.533 543.215 491.067 539.748 489.2C536.548 487.067 533.615 484.933 530.948 482.8C528.548 480.4 527.082 478.133 526.548 476C526.015 474.667 525.748 472.667 525.748 470C525.748 467.067 525.748 463.333 525.748 458.8C525.748 453.467 526.015 446 526.548 436.4C527.082 426.8 527.748 415.733 528.548 403.2C529.348 390.667 530.282 377.333 531.348 363.2C532.415 348.8 533.482 334 534.548 318.8C535.615 303.333 536.548 288.133 537.348 273.2C538.148 258.267 538.815 244 539.348 230.4C540.148 216.533 540.682 204.133 540.948 193.2C540.948 191.333 541.348 190 542.148 189.2C542.948 188.133 544.682 187.6 547.348 187.6C552.682 187.6 558.148 188.267 563.748 189.6C569.348 190.933 574.015 193.067 577.748 196C581.748 198.667 583.748 202.133 583.748 206.4C583.748 208.533 583.348 214.933 582.548 225.6C581.748 236.267 580.682 249.467 579.348 265.2C578.282 280.667 577.082 297.2 575.748 314.8C574.415 332.4 573.082 349.6 571.748 366.4C570.682 382.933 569.748 397.6 568.948 410.4C568.148 422.933 567.748 432 567.748 437.6C567.748 446.4 568.148 452 568.948 454.4C570.015 456.8 571.615 458 573.748 458C575.348 458 577.748 456.533 580.948 453.6C584.415 450.4 588.148 446.667 592.148 442.4C596.415 437.867 600.282 433.467 603.748 429.2C607.215 424.933 609.882 421.867 611.748 420C612.548 418.933 613.082 418.133 613.348 417.6C613.882 417.067 614.415 416.8 614.948 416.8C616.282 416.8 617.748 418.267 619.348 421.2C621.215 423.867 622.148 426.8 622.148 430C622.148 432.4 621.348 434.533 619.748 436.4C616.815 440.4 612.682 445.733 607.348 452.4C602.015 458.8 596.148 465.333 589.748 472C583.348 478.4 577.215 483.867 571.348 488.4C565.482 492.933 560.282 495.2 555.748 495.2Z" fill="#2C3E50"/>
</svg>
